# xmcd CD database file
#
# Track frame offsets:
#	150
#	71216
#	122753
#
# Disc length: 2505 seconds
#
# Revision: 0
# Processed by: cddbd v1.5.2PL0 Copyright (c) Steve Scherf et al.
# Submitted via: CDex 1.77
#
DISCID=2809c703
DTITLE=Bobby Hutcherson and Harold Land - UCLA 27 September 1981
DYEAR=1981
DGENRE=Jazz
TTITLE0=Intro - Short Subject
TTITLE1=My Foolish Heart
TTITLE2=Same Shame
EXTD=YEAR: 1981
EXTT0=
EXTT1=
EXTT2=
PLAYORDER=
